<?xml version="1.0" standalone="no"?>
<!DOCTYPE svg PUBLIC "-//W3C//DTD SVG 20010904//EN"
 "http://www.w3.org/TR/2001/REC-SVG-20010904/DTD/svg10.dtd">
<svg version="1.0" xmlns="http://www.w3.org/2000/svg"
 width="1024.000000pt" height="1024.000000pt" viewBox="0 0 1024.000000 1024.000000"
 preserveAspectRatio="xMidYMid meet">
<metadata>
Created by potrace 1.14, written by Peter Selinger 2001-2017
</metadata>
<g transform="translate(0.000000,1024.000000) scale(0.100000,-0.100000)"
fill="#000000" stroke="none">
<path d="M5136 9033 c2 -6 -1 -13 -7 -15 -5 -2 -12 -17 -15 -33 -3 -17 -7 -34
-8 -40 -6 -24 -19 -90 -21 -104 -2 -23 -17 -74 -24 -86 -3 -5 -7 -21 -8 -35
-2 -37 -13 -83 -22 -95 -5 -5 -8 -22 -7 -37 1 -14 -1 -25 -5 -22 -7 4 -18 -40
-22 -83 -1 -11 -5 -19 -9 -16 -5 2 -9 -4 -10 -14 -2 -32 -4 -38 -16 -59 -6
-12 -8 -24 -5 -28 3 -3 1 -6 -5 -6 -6 0 -9 -7 -6 -15 4 -8 1 -22 -6 -30 -6 -8
-9 -19 -6 -24 4 -5 2 -12 -4 -16 -6 -4 -8 -11 -5 -16 4 -5 1 -9 -5 -9 -6 0
-10 -8 -8 -17 2 -10 -1 -17 -7 -16 -5 1 -11 -10 -12 -23 -1 -13 -4 -35 -5 -48
-1 -14 -6 -22 -10 -20 -4 3 -8 -3 -8 -14 0 -10 -3 -22 -7 -26 -4 -3 -8 -12
-10 -19 -1 -7 -4 -19 -5 -27 -2 -8 -7 -21 -11 -27 -5 -7 -5 -17 -2 -23 3 -5
-1 -10 -10 -10 -9 0 -14 -4 -11 -8 7 -12 -15 -82 -27 -82 -5 0 -7 -7 -3 -15 3
-8 -2 -19 -12 -24 -9 -6 -13 -11 -8 -11 5 0 2 -8 -5 -17 -9 -11 -10 -14 -2 -9
9 5 8 -2 -2 -21 -36 -70 -75 -166 -69 -174 3 -5 0 -9 -5 -9 -6 0 -11 -7 -11
-15 0 -8 -5 -15 -11 -15 -6 0 -9 -6 -6 -14 3 -8 1 -16 -5 -18 -6 -2 -13 -15
-15 -29 -2 -13 -8 -25 -13 -27 -6 -2 -10 -12 -10 -23 0 -10 -4 -19 -10 -19 -5
0 -10 -6 -10 -14 0 -12 -59 -135 -70 -146 -3 -3 -6 -12 -8 -20 -2 -8 -8 -16
-13 -18 -5 -2 -9 -12 -9 -22 0 -9 -7 -23 -15 -30 -8 -7 -12 -16 -9 -21 3 -5
-2 -12 -10 -15 -9 -3 -14 -10 -11 -14 3 -5 1 -11 -5 -15 -6 -4 -8 -10 -5 -15
3 -4 -2 -10 -10 -14 -9 -3 -12 -12 -8 -22 4 -12 3 -15 -5 -10 -8 5 -12 0 -12
-14 0 -12 -4 -19 -9 -16 -8 5 -33 -44 -35 -69 -1 -5 -11 -21 -23 -35 -13 -14
-23 -31 -23 -38 0 -7 -6 -15 -14 -18 -8 -3 -13 -11 -10 -18 3 -7 -4 -20 -15
-30 -11 -10 -18 -23 -15 -27 3 -5 0 -9 -5 -9 -6 0 -11 -5 -11 -10 0 -10 -8
-22 -37 -55 -7 -7 -13 -19 -13 -25 0 -6 -9 -20 -20 -32 -10 -12 -17 -24 -15
-28 3 -5 -2 -10 -10 -14 -8 -3 -15 -13 -15 -21 0 -9 -4 -13 -10 -10 -5 3 -10
0 -10 -7 0 -7 -16 -30 -35 -51 -19 -21 -32 -43 -29 -49 4 -6 2 -8 -3 -5 -6 4
-19 -3 -29 -15 -13 -14 -14 -19 -4 -13 8 4 4 -4 -10 -18 -38 -40 -52 -57 -43
-57 4 0 -2 -7 -13 -15 -10 -8 -15 -15 -11 -15 8 0 -1 -13 -35 -51 -10 -10 -19
-22 -20 -26 -2 -5 -6 -7 -10 -5 -5 1 -8 -8 -8 -20 0 -12 -3 -18 -6 -15 -8 7
-44 -36 -44 -52 0 -6 -9 -15 -20 -21 -11 -6 -20 -17 -20 -24 0 -7 -12 -24 -27
-38 -38 -34 -81 -86 -77 -91 2 -2 -7 -9 -20 -17 -13 -7 -27 -22 -30 -33 -3
-13 -10 -18 -21 -13 -9 3 -13 2 -10 -4 6 -10 -15 -35 -117 -141 -32 -33 -58
-64 -58 -70 0 -6 -3 -8 -7 -6 -5 2 -18 -7 -30 -20 -12 -13 -20 -23 -18 -23 3
0 -3 -8 -12 -18 -10 -11 -21 -17 -25 -15 -5 2 -8 -2 -8 -9 0 -7 -21 -33 -47
-58 -26 -25 -45 -45 -42 -45 2 0 -13 -17 -33 -37 -19 -20 -39 -34 -42 -30 -4
3 -4 -1 -1 -10 4 -11 0 -18 -15 -23 -12 -4 -19 -9 -17 -12 3 -2 -14 -24 -37
-48 -24 -24 -46 -51 -50 -60 -3 -9 -10 -13 -16 -10 -5 3 -10 1 -10 -4 0 -6
-16 -27 -35 -48 -19 -20 -31 -41 -28 -46 3 -6 2 -8 -3 -5 -11 6 -45 -28 -37
-36 4 -3 1 -6 -5 -6 -7 0 -12 -7 -12 -16 0 -8 -4 -13 -9 -9 -6 3 -15 -5 -22
-17 -12 -23 -18 -31 -63 -79 -14 -15 -22 -30 -19 -33 4 -3 -1 -6 -11 -6 -9 0
-15 -4 -12 -9 3 -5 -1 -12 -10 -15 -8 -3 -12 -10 -9 -16 3 -5 -1 -10 -9 -10
-9 0 -15 -4 -13 -9 1 -5 -10 -23 -25 -40 -16 -17 -28 -33 -28 -36 0 -5 -25
-36 -47 -60 -7 -8 -13 -18 -13 -24 0 -6 -4 -11 -10 -11 -5 0 -10 -6 -10 -14 0
-8 -10 -22 -22 -30 -12 -9 -18 -16 -13 -16 6 0 3 -6 -6 -13 -9 -7 -19 -22 -23
-35 -4 -12 -12 -22 -17 -22 -5 0 -9 -6 -9 -14 0 -8 -7 -16 -15 -20 -8 -3 -15
-13 -15 -21 0 -9 -6 -23 -12 -30 -23 -25 -33 -41 -36 -54 -1 -7 -9 -20 -17
-28 -8 -8 -15 -19 -15 -25 0 -5 -9 -23 -21 -39 -11 -16 -17 -34 -13 -40 4 -8
3 -9 -4 -5 -7 4 -12 1 -12 -8 0 -9 -5 -16 -11 -16 -5 0 -8 -4 -4 -9 3 -5 1
-12 -5 -16 -5 -3 -10 -15 -10 -26 0 -13 -4 -18 -12 -13 -6 4 -8 3 -5 -3 3 -5
-1 -22 -9 -38 -8 -15 -12 -30 -10 -33 3 -2 -1 -14 -9 -24 -7 -11 -11 -27 -8
-36 5 -11 3 -13 -7 -7 -10 6 -12 2 -8 -19 4 -21 2 -26 -10 -21 -11 4 -12 2 -4
-7 7 -9 6 -25 -3 -52 -8 -22 -12 -43 -9 -48 3 -4 1 -8 -4 -8 -5 0 -9 -6 -10
-12 0 -7 -4 -35 -8 -63 -3 -27 -7 -62 -7 -78 -1 -15 -4 -27 -7 -27 -8 0 -5
-54 4 -69 6 -9 5 -12 -1 -8 -17 11 -19 -10 -17 -183 3 -169 7 -227 17 -237 4
-3 2 -14 -3 -24 -7 -12 -6 -19 2 -21 6 -2 12 -24 13 -49 2 -51 14 -109 26
-124 4 -6 8 -20 8 -30 1 -39 4 -55 12 -55 4 0 10 -7 13 -16 3 -8 2 -13 -3 -10
-5 4 -7 -3 -4 -14 3 -11 10 -20 15 -20 5 0 6 -5 3 -10 -3 -6 -1 -10 5 -10 7 0
10 -7 7 -15 -4 -8 -2 -17 3 -20 6 -4 10 -15 10 -26 0 -10 5 -19 11 -19 6 0 8
-7 5 -16 -4 -10 -2 -13 6 -8 8 5 9 2 5 -9 -3 -10 -2 -17 3 -17 6 0 10 -9 10
-20 0 -11 3 -20 8 -20 4 0 15 -21 26 -46 10 -24 25 -51 33 -59 8 -8 15 -24 16
-34 0 -11 4 -18 7 -16 7 4 24 -17 28 -35 2 -8 12 -24 23 -36 10 -11 19 -25 19
-31 0 -6 10 -18 23 -27 12 -9 15 -14 7 -10 -14 7 24 -43 45 -58 6 -4 6 -8 2
-8 -4 0 4 -11 18 -25 14 -14 25 -30 25 -36 0 -6 5 -7 10 -4 6 3 10 -1 10 -9 0
-9 5 -16 10 -16 6 0 10 -7 10 -16 0 -8 5 -12 10 -9 6 3 10 -1 10 -10 0 -9 5
-13 10 -10 6 3 10 1 10 -6 0 -16 77 -89 93 -89 7 0 6 -4 -3 -10 -13 -8 -12
-10 3 -10 9 0 17 -4 17 -10 0 -5 5 -10 11 -10 14 0 39 -25 39 -39 0 -6 3 -10
8 -10 19 3 33 -2 27 -11 -3 -6 1 -13 10 -17 9 -3 31 -19 48 -34 17 -16 37 -29
45 -29 7 0 10 -5 7 -10 -3 -6 1 -10 10 -10 10 0 13 -5 9 -12 -4 -6 -3 -8 3 -5
5 3 26 -8 46 -24 20 -17 37 -27 37 -23 0 4 8 -2 18 -13 9 -11 27 -23 40 -27
12 -4 20 -12 16 -17 -3 -5 -2 -9 3 -8 14 3 47 -14 64 -33 9 -10 22 -18 28 -18
7 0 29 -11 49 -25 20 -14 41 -25 46 -25 5 0 15 -8 23 -18 8 -10 11 -11 7 -2
-5 8 9 2 31 -14 21 -16 35 -23 30 -15 -7 11 -5 11 11 -1 10 -8 21 -17 24 -20
3 -3 12 -5 20 -5 8 0 14 -5 13 -12 -2 -7 7 -10 22 -7 15 3 28 -2 37 -14 7 -10
20 -17 28 -17 8 1 22 -5 32 -13 9 -7 22 -15 30 -16 29 -5 58 -18 58 -26 0 -4
8 -7 17 -6 9 2 29 -4 45 -11 15 -8 33 -11 39 -7 8 4 9 3 5 -4 -5 -8 0 -12 13
-12 12 0 21 -4 21 -9 0 -5 8 -8 18 -7 9 2 24 -1 32 -5 24 -12 53 -22 80 -26
13 -2 27 -7 30 -11 3 -4 14 -8 25 -9 33 -3 54 -9 61 -16 4 -4 18 -7 31 -7 12
0 23 -4 23 -8 0 -4 8 -8 18 -9 49 -4 68 -8 74 -18 5 -6 8 -4 8 5 0 11 2 12 8
3 4 -7 23 -14 43 -16 19 -2 40 -7 47 -11 7 -4 16 -4 22 -1 5 3 19 1 31 -6 15
-8 19 -8 15 0 -4 6 -2 11 3 11 6 0 11 -4 11 -8 0 -4 15 -7 33 -7 17 0 38 -4
44 -8 7 -5 20 -7 28 -3 8 3 15 1 15 -4 0 -6 5 -10 11 -10 5 0 7 4 4 10 -4 6 2
7 17 1 13 -5 42 -8 66 -7 23 1 42 -2 42 -6 0 -4 12 -8 26 -8 17 0 23 4 18 13
-6 9 -5 9 8 -1 10 -8 55 -13 127 -14 67 -2 111 -7 111 -13 0 -7 3 -7 8 0 9 14
112 14 112 0 0 -5 4 -4 9 4 6 9 15 11 27 6 26 -11 37 -12 49 -5 6 4 53 8 105
9 169 4 185 5 192 16 5 6 8 5 8 -3 0 -8 5 -10 12 -6 13 8 38 12 100 16 21 2
38 5 38 9 0 3 10 5 23 6 89 4 137 9 137 15 0 4 9 5 20 3 11 -2 20 0 20 5 0 5
7 7 15 4 8 -3 20 -2 27 2 6 4 25 9 42 11 16 2 36 9 45 16 12 9 13 9 7 0 -8
-14 6 -18 18 -6 3 4 17 8 29 10 12 2 29 6 37 10 18 7 35 11 75 16 17 3 41 9
55 15 14 5 28 8 33 5 4 -2 7 1 7 6 0 6 14 11 30 11 17 0 30 5 30 11 0 5 3 8 8
6 4 -3 18 0 32 6 14 5 36 12 50 14 13 2 28 10 32 16 4 7 8 9 8 5 0 -10 63 13
72 26 5 7 8 6 8 -4 0 -13 1 -13 10 0 5 8 13 15 17 15 21 2 53 18 53 27 0 6 9
8 20 5 10 -3 24 1 31 9 6 8 15 12 19 9 5 -3 11 -1 15 5 3 5 15 10 26 10 10 0
19 5 19 12 0 6 3 9 6 5 4 -3 13 1 21 9 8 8 19 12 24 9 5 -4 9 -1 9 4 0 6 3 11
8 10 15 -2 52 14 52 23 0 5 5 6 10 3 6 -3 10 -1 10 5 0 6 5 8 10 5 6 -3 13 0
16 8 3 8 13 14 22 12 9 -1 25 6 35 16 10 11 24 19 32 19 8 0 15 5 15 10 0 6 7
10 15 10 8 0 15 5 15 11 0 5 5 7 10 4 6 -3 10 -2 10 4 0 6 11 13 25 17 14 3
25 10 25 15 0 5 6 9 14 9 8 0 21 8 28 18 7 9 19 18 27 20 7 1 19 8 25 15 7 7
29 23 49 37 20 14 37 29 37 33 0 5 5 5 10 2 6 -3 10 2 10 11 0 10 3 14 6 11 8
-8 90 64 87 75 -2 4 4 5 11 2 9 -3 17 3 21 15 3 12 13 21 21 21 8 0 12 5 9 10
-3 5 -2 10 4 10 13 0 87 72 84 82 -2 4 6 9 16 13 10 3 23 17 30 31 6 14 16 22
21 19 6 -3 10 -2 10 3 0 5 22 38 50 72 27 34 47 67 43 73 -3 5 -2 7 4 4 10 -6
43 26 43 43 0 6 5 10 11 10 5 0 7 4 4 10 -3 5 -1 10 4 10 6 0 11 6 11 14 0 8
7 17 16 20 8 3 12 10 9 16 -3 5 -1 10 5 10 6 0 8 5 5 10 -3 6 -2 10 3 10 5 0
14 10 20 22 6 13 27 51 46 86 19 34 33 62 30 62 -2 0 7 18 22 41 14 23 20 38
12 33 -7 -4 -4 2 6 14 11 12 16 22 12 22 -3 0 0 10 9 23 8 13 12 27 8 30 -3 4
-1 7 5 7 6 0 9 9 7 20 -2 11 0 20 5 20 4 0 11 7 14 16 3 8 2 12 -4 9 -6 -3 -7
1 -4 9 3 9 10 16 15 16 4 0 6 7 3 15 -4 8 -2 15 2 15 5 0 10 10 11 23 3 32 8
51 16 63 3 6 8 26 9 43 1 18 6 35 10 37 4 3 8 11 8 17 0 7 -4 6 -11 -3 -9 -12
-9 -11 -3 5 4 11 7 35 8 53 0 17 3 32 6 32 3 0 6 11 6 25 1 16 -2 23 -10 19
-6 -3 -2 2 8 10 11 9 15 16 10 16 -11 0 -12 49 -2 66 4 5 3 16 -2 23 -4 8 -4
26 0 41 4 15 3 34 -2 43 -5 10 -5 17 -1 17 4 0 8 11 8 25 0 14 -2 25 -5 25 -8
0 -5 74 3 87 4 6 3 14 -3 18 -6 4 -8 10 -5 15 3 5 1 12 -5 15 -8 5 -7 11 1 21
7 9 8 14 1 14 -6 0 -10 20 -8 49 1 27 -1 48 -5 45 -4 -2 -8 4 -8 13 0 21 -8
68 -10 68 -3 0 -12 36 -13 53 -1 6 -4 12 -8 12 -4 0 -6 10 -5 22 1 13 -2 29
-8 36 -5 6 -6 12 -1 12 5 0 3 4 -3 8 -7 5 -14 20 -15 35 -1 15 -7 27 -12 27
-5 0 -7 3 -3 6 3 4 -1 20 -9 36 -8 16 -12 33 -9 38 3 5 -2 13 -11 18 -11 6
-15 16 -11 26 4 9 3 15 -1 12 -4 -2 -21 24 -37 60 -16 35 -34 64 -39 64 -5 0
-7 3 -3 6 3 4 1 12 -6 20 -31 34 -42 49 -39 51 6 7 1 24 -6 19 -5 -3 -14 11
-21 30 -7 18 -17 34 -22 34 -6 0 -15 13 -20 30 -6 16 -19 32 -30 35 -11 4 -16
11 -13 17 3 5 -3 16 -15 24 -12 9 -19 20 -16 25 4 5 -1 9 -9 9 -14 0 -20 12
-17 33 0 4 -7 7 -16 7 -9 0 -14 3 -10 6 3 3 -5 17 -19 31 -13 13 -24 28 -24
34 0 6 -5 7 -12 3 -8 -5 -9 -2 -4 12 4 10 4 15 0 11 -4 -4 -14 2 -21 13 -8 11
-19 17 -25 14 -6 -4 -8 -3 -5 3 3 5 -30 47 -73 93 -44 46 -80 87 -80 92 0 5
-4 6 -10 3 -9 -6 -14 8 -11 28 1 5 -2 6 -7 3 -11 -7 -202 180 -194 190 4 4 2
4 -5 1 -6 -4 -22 6 -36 22 -14 17 -28 27 -31 24 -3 -4 -6 1 -6 10 0 9 -4 17
-8 17 -14 0 -72 56 -72 69 0 8 -7 11 -17 7 -10 -4 -15 -4 -11 -1 6 6 -29 44
-89 97 -17 14 -34 24 -37 21 -3 -4 -6 -1 -6 6 0 16 -26 42 -34 34 -3 -4 -6 1
-6 10 0 8 -9 19 -20 22 -11 3 -20 13 -20 21 0 8 -4 12 -10 9 -5 -3 -10 1 -10
9 0 9 -6 15 -12 13 -7 -1 -12 4 -10 11 1 8 -2 11 -7 8 -5 -3 -20 7 -34 23 -14
17 -28 27 -31 24 -3 -4 -6 1 -6 11 0 9 -4 14 -10 11 -5 -3 -10 -1 -10 5 0 15
-26 41 -34 33 -3 -4 -6 1 -6 10 0 9 -6 17 -14 17 -8 0 -18 9 -21 20 -4 11 -11
18 -16 15 -5 -4 -9 1 -9 9 0 9 -7 16 -16 16 -8 0 -13 3 -11 8 3 4 -1 13 -9 20
-8 7 -14 10 -14 6 0 -4 -13 9 -29 29 -15 20 -31 34 -35 30 -3 -3 -6 3 -6 15 0
11 -4 24 -10 27 -5 3 -8 0 -7 -7 2 -7 -1 -3 -7 10 -5 12 -16 22 -23 22 -7 0
-13 4 -13 9 0 4 -15 24 -34 44 -18 20 -31 38 -28 41 3 4 -3 6 -13 6 -10 0 -15
3 -12 6 3 4 -8 20 -24 35 -17 16 -27 29 -23 29 5 0 1 5 -8 11 -10 5 -18 17
-18 24 0 8 -8 15 -17 15 -9 0 -13 3 -10 6 4 4 -3 15 -15 25 -11 11 -18 19 -15
19 4 0 -9 17 -28 37 -19 20 -35 41 -35 46 0 8 -11 23 -42 58 -10 10 -15 19
-10 19 4 0 -1 5 -10 11 -10 5 -18 17 -18 24 0 8 -5 15 -11 15 -5 0 -7 5 -4 10
3 6 1 10 -4 10 -6 0 -10 6 -9 13 2 6 -4 10 -12 9 -8 -2 -12 0 -8 4 4 4 -1 19
-12 34 -11 15 -17 30 -13 34 3 3 -1 6 -11 6 -9 0 -14 5 -11 10 3 6 1 10 -5 10
-6 0 -8 5 -5 10 3 6 1 10 -4 10 -6 0 -11 6 -11 13 0 7 -9 23 -20 35 -11 12
-21 25 -22 29 -5 32 -13 43 -27 44 -10 0 -11 2 -3 6 9 3 7 12 -8 33 -11 15
-20 36 -20 45 0 10 -5 13 -12 9 -8 -5 -9 -2 -5 9 3 10 2 17 -4 17 -6 0 -8 4
-5 9 3 5 -1 12 -10 15 -8 3 -12 10 -9 16 3 5 1 10 -5 10 -6 0 -9 4 -6 9 3 4
-1 17 -9 27 -8 10 -15 27 -15 37 0 9 -4 17 -10 17 -5 0 -10 4 -10 10 0 5 -11
33 -24 62 -13 29 -26 65 -30 81 -3 15 -11 27 -16 27 -5 0 -7 9 -5 20 2 13 -2
20 -11 20 -11 0 -13 6 -9 20 4 12 2 20 -5 20 -6 0 -8 5 -5 10 3 6 1 10 -5 10
-6 0 -8 5 -5 10 3 6 2 10 -2 10 -5 0 -10 9 -11 20 -1 11 -3 29 -4 40 -1 11 -5
20 -9 20 -4 0 -10 7 -13 16 -4 10 -2 13 7 8 6 -4 3 2 -7 14 -11 12 -16 22 -11
22 4 0 2 7 -5 15 -7 8 -9 15 -5 15 4 0 2 6 -4 13 -6 8 -8 17 -4 20 3 4 1 7 -6
7 -7 0 -10 4 -6 9 3 5 1 12 -4 15 -5 3 -7 15 -4 26 3 11 1 20 -5 20 -5 0 -9 8
-9 18 1 23 -26 112 -33 112 -4 0 -5 16 -4 35 2 20 -1 33 -5 30 -5 -3 -11 2
-15 10 -3 8 0 15 7 15 9 0 9 2 0 8 -7 4 -15 26 -17 49 -3 22 -10 52 -15 67 -6
14 -7 26 -3 26 4 0 0 4 -8 10 -9 5 -13 22 -12 44 2 20 -1 36 -5 36 -4 0 -9 11
-10 25 -1 14 -3 36 -4 50 -1 14 -5 25 -8 25 -6 0 -11 35 -14 88 0 6 -5 12 -11
12 -7 0 -7 3 -1 8 13 9 18 35 5 27 -5 -3 -10 1 -10 10 0 10 5 14 13 10 6 -4 4
0 -5 8 -10 8 -15 17 -12 20 4 3 3 14 -2 24 -4 10 -9 34 -10 53 -1 19 -3 35 -4
35 -4 0 -10 40 -12 90 -2 28 -7 53 -12 57 -13 9 -15 47 -4 54 5 3 4 12 -3 20
-6 7 -9 20 -6 29 4 8 2 17 -2 19 -5 3 -7 21 -5 41 1 19 -1 35 -6 35 -10 0 -8
20 4 39 6 10 5 12 -2 7 -8 -5 -12 2 -12 21 0 16 -6 35 -12 42 -11 11 -10 12 2
6 12 -7 13 -6 3 7 -7 8 -9 19 -5 23 4 5 2 5 -5 2 -6 -4 -13 -4 -16 0 -2 5 -2
3 -1 -4z"/>
</g>
</svg>
